<?xml version="1.0" encoding="UTF-8" standalone="no"?><!DOCTYPE svg PUBLIC "-//W3C//DTD SVG 1.1//EN" "http://www.w3.org/Graphics/SVG/1.1/DTD/svg11.dtd"><svg width="100%" height="100%" viewBox="0 0 2084 2084" version="1.1" xmlns="http://www.w3.org/2000/svg" xmlns:xlink="http://www.w3.org/1999/xlink" xml:space="preserve" xmlns:serif="http://www.serif.com/" style="fill-rule:evenodd;clip-rule:evenodd;stroke-linejoin:round;stroke-miterlimit:2;"><rect id="Light-theme" serif:id="Light theme" x="0" y="0" width="2083.33" height="2083.33" style="fill:none;"/><g id="Light-theme1" serif:id="Light theme"><g><path d="M984.87,1107.79c5.275,-18.398 -5.378,-33.334 -23.775,-33.334l-560.827,0c-18.398,0 -37.617,14.936 -42.892,33.334l-191.709,668.569c-5.275,18.397 5.378,33.334 23.775,33.334l260.827,-0c183.972,-0 376.162,-149.362 428.915,-333.334l105.686,-368.569Z"/><path d="M1904.38,634.888c57.171,-199.38 -58.284,-361.25 -257.663,-361.25l-950.611,-0c-55.191,-0 -112.848,44.808 -128.674,100l-172.593,601.903c-5.275,18.397 5.378,33.333 23.775,33.333l1045.43,0c183.839,0 375.891,-149.254 428.606,-333.093l11.726,-40.893Z"/></g></g></svg>